<?xml version="1.0" standalone="no"?><!DOCTYPE svg PUBLIC "-//W3C//DTD SVG 1.1//EN" "http://www.w3.org/Graphics/SVG/1.1/DTD/svg11.dtd"><svg t="1633243433144" class="icon" viewBox="0 0 1024 1024" version="1.1" xmlns="http://www.w3.org/2000/svg" p-id="2651" xmlns:xlink="http://www.w3.org/1999/xlink" width="200" height="200"><defs><style type="text/css"></style></defs><path d="M479.9 769.5c-64.3 0-123.2-26.8-175-79.8-25-25.5-44.3-62.3-54.5-103.6-10.9-44.3-10.5-89.8 1.3-131.4 11.2-39.7 32.1-74.1 62.1-102.3 22.8-21.4 50.8-39 83.3-52.3 0.3-0.1 0.7-0.2 1-0.2 1.2 0 2.2 0.8 2.6 2 0.3 1.2-0.2 2.4-1.2 3-24.7 15-70.3 49.5-99 111.8-20.8 45.1-37.1 116.7 3.5 201 32.5 67.6 107.6 113 187.1 113 43 0 85-12.8 124.9-38 73.3-46.3 140.2-153.5 124.4-288.7-0.1-0.8 0.1-1.5 0.6-2.1 0.5-0.6 1.2-0.9 2-0.9 1.1 0 2.1 0.7 2.5 1.7 10.8 28.5 16.6 57.9 17.2 87.5 0.7 34.3-5.5 68.1-18.5 100.5-12.6 31.4-30.9 60-54.5 85.3-23.6 25.3-51.4 45.8-82.4 61.1-44 21.5-86.8 32.4-127.4 32.4zM803.9 325.2c-11.8 0-25-1.5-39.3-4.5-3.3-0.7-7.5-2-12.4-3.5-11.9-3.7-28.3-8.8-45.1-8.8-7.6 0-14.8 1.1-21.4 3.1-0.3 0.1-0.6 0.2-1 0.2-1.3 0-2.4-0.9-2.8-2.2-0.4-1.3 0.1-2.6 1.2-3.4 11.3-7.5 27.1-12.4 40.4-12.4 4.1 0 7.9 0.5 11.2 1.4 11.7 3.2 29.1 7.6 46 7.6 13.6 0 24.9-2.8 33.5-8.4 5-3.3 8.1-8 9.1-13.9 3.6-21-17.9-49.7-20.4-53-10.4-13.5-42.6-35.9-59.9-35.9-3.1 0-5.5 0.7-7.3 2.1-10.2 7.8-12.4 24.1-14.3 38.6-1.6 11.6-2.9 21.7-8 26.6-0.6 0.5-1.3 0.8-2 0.8-0.9 0-1.7-0.4-2.3-1-0.6-0.7-0.8-1.5-0.7-2.4 1.9-15.7-0.9-30.8-3.5-44.1-4.7-24.3-8.7-45.3 20.9-55.5 4.4-1.5 9-2.3 14-2.3 24 0 54.5 18.6 81.6 49.7 26.4 30.3 42.2 64.5 39.4 85-3.2 23.6-22.9 36.2-56.9 36.2z" fill="" p-id="2652"></path><path d="M364.3 633.1c-1.5 0.9-3.1-1-1.9-2.4 34.4-38.3 111-12.3 130.2-6 78.8 26 141-36.7 128.3-90-15-62.8-44.5-70-53-134-8.7-65.9 15.6-94.4 31.6-107.9 1.3-1.1 3.2 0.4 2.3 1.9-15.7 27.8-20.4 45.8-20.4 80 0 37 33 88 48.3 123.3 16.9 39 27.7 96.7-26.8 136.7-31.1 22.8-79.2 31.6-121 5-37-23.6-91.8-21.9-117.6-6.6zM314.3 869.8c-1 0-1.9-0.6-2.4-1.5-0.4-0.9-0.3-1.9 0.3-2.7 14.2-18.6 19.7-46 14.9-75.1-3.7-22.8-13.2-42.3-24.2-49.8-19.7-13.3-42.1-19.6-70.7-19.6-4.8 0-10 0.2-15.3 0.5-21.3 1.4-30.4 18.6-30 30.3 0.2 7 3.8 14.5 13 14.5 6 0 22.3 2 33.2 6.7 11.9 5.1 18.2 13.2 20.1 18.6 3.1 8.9 1 16.3-0.7 22.3-1.4 5-2.5 9 0 12 3.6 4.3 6.9 4.7 9.8 5 3 0.3 5.9 0.7 7.3 5.5 0.6 2.2 0.3 4.3-1 6-2.4 3.2-8.1 5.2-14.9 5.2-7.6 0-17.3-2.5-21.8-9.7-4-6.2-3.1-12.9-2.4-18.8 0.6-5.2 1.2-9.7-1.5-12.9-1.5-1.7-3-2.5-5.2-2.5-1.4 0-2.9 0.3-4.6 0.6-2.1 0.4-4.5 0.9-7.3 0.9-6 0-15.5-1.9-29.4-18.2-7.9-9.3-32.6-49.4-8.5-75.6 9.9-10.7 31.4-16.9 58.9-16.9 29.5 0 67.7 7.7 86.5 25 15.7 14.4 30.5 54.5 27.6 91.1-1.4 18.3-7.9 43.2-30.4 58.2-0.3 0.8-0.8 0.9-1.3 0.9z" fill="" p-id="2653"></path></svg>